# AST/ASF file generated using VICON BodyLanguage
# -----------------------------------------------
:version 1.10
:name VICON
:units
  mass 1.0
  length 0.45
  angle deg
:documentation
   .ast/.asf automatically generated from VICON data using
   VICON BodyBuilder and BodyLanguage model FoxedUp or BRILLIANT.MOD
:root
   order TX TY TZ RX RY RZ
   axis XYZ
   position 0 0 0  
   orientation 0 0 0 
:bonedata
  begin
     id 1 
     name lhipjoint
     direction 0.710188 -0.616876 0.339259 
     length 2.5669 
     axis 0 0 0  XYZ
  end
  begin
     id 2 
     name lfemur
     direction 0.34202 -0.939693 0  
     length 7.12796  
     axis 0 0 20  XYZ
    dof rx ry rz
    limits (-160.0 20.0)
           (-70.0 70.0)
           (-60.0 70.0)
  end
  begin
     id 3 
     name ltibia
     direction 0.34202 -0.939693 0   
     length 7.58108   
     axis 0 0 20   XYZ
    dof rx
    limits (-10.0 170.0)
  end
  begin
     id 4 
     name lfoot
     direction 0.0669471 -0.183936 0.980656   
     length 2.17365   
     axis -90 7.62852e-016 20   XYZ
    dof rx rz
    limits (-45.0 90.0)
           (-70.0 20.0)
  end
  begin
     id 5 
     name ltoes
     direction 1.53508e-011 -4.21705e-011 1   
     length 1.09427   
     axis -90 7.62852e-016 20   XYZ
    dof rx
    limits (-90.0 20.0)
  end
  begin
     id 6 
     name rhipjoint
     direction -0.700191 -0.625589 0.34405   
     length 2.53115  
     axis 0 0 0  XYZ 
  end
  begin
     id 7 
     name rfemur
     direction -0.34202 -0.939693 0   
     length 7.33006   
     axis 0 0 -20   XYZ
    dof rx ry rz
    limits (-160.0 20.0)
           (-70.0 70.0)
           (-70.0 60.0)
  end
  begin
     id 8 
     name rtibia
     direction -0.34202 -0.939693 0   
     length 7.64926   
     axis 0 0 -20   XYZ
    dof rx
    limits (-10.0 170.0)
 end
 begin
     id 9 
     name rfoot
     direction -0.0688927 -0.189281 0.979503   
     length 2.20493  
     axis -90 -7.62852e-016 -20   XYZ
    dof rx rz
    limits (-45.0 90.0)
           (-20.0 70.0)
  end
  begin
     id 10 
     name rtoes
     direction -1.53567e-011 -4.21933e-011 1   
     length 1.10919   
     axis -90 -7.62852e-016 -20   XYZ
    dof rx
    limits (-90.0 20.0)
  end
  begin
     id 11 
     name lowerback
     direction -0.0167868 0.989873 -0.140959   
     length 2.14596   
     axis 0 0 0   XYZ
    dof rx ry rz
    limits (-20.0 45.0)
           (-30.0 30.0)
           (-30.0 30.0)
  end
  begin
     id 12 
     name upperback
     direction 0.0129109 0.998033 0.0613525   
     length 2.10457   
     axis 0 0 0   XYZ
    dof rx ry rz
    limits (-20.0 45.0)
           (-30.0 30.0)
           (-30.0 30.0)
  end
  begin
     id 13 
     name thorax
     direction 0.0177047 0.991119 0.131797   
     length 2.17652   
     axis 0 0 0   XYZ
    dof rx ry rz
    limits (-20.0 45.0)
           (-30.0 30.0)
           (-30.0 30.0)
  end
  begin
     id 14 
     name lowerneck
     direction -0.0336893 0.997548 0.0613464   
     length 1.8912   
     axis 0 0 0   XYZ
    dof rx ry rz
    limits (-20.0 45.0)
           (-30.0 30.0)
           (-30.0 30.0)
  end
  begin
     id 15 
     name upperneck
     direction 0.0435909 0.997179 -0.0611028   
     length 1.8829   
     axis 0 0 0   XYZ
    dof rx ry rz
    limits (-20.0 45.0)
           (-30.0 30.0)
           (-30.0 30.0)
  end
  begin
     id 16
     name head
     direction 0.0175076 0.999444 -0.0283782  
     length 1.93197  
     axis 0 0 0   XYZ
    dof rx ry rz
    limits (-20.0 45.0)
           (-30.0 30.0)
           (-30.0 30.0)
  end
  begin
     id 17 
     name lclavicle
     direction 0.919164 0.389875 0.0559876  
     length 3.60004  
     axis 0 0 0   XYZ
    dof ry rz
    limits (-20.0 10.0)
           (0.0 20.0)
  end
  begin
     id 18 
     name lhumerus
     direction 1 -4.48958e-011 6.89191e-027   
     length 5.43301   
     axis 180 -30 -90   XYZ
    dof rx ry rz
    limits (-60.0 90.0)
           (-90.0 90.0)
           (-90.0 90.0)
  end
  begin
     id 19
     name lradius
     direction 1 -4.4897e-011 3.24727e-027   
     length 3.15936   
     axis 180 -30 -90   XYZ
    dof rx
    limits (-10.0 170.0)
  end
  begin
     id 20
     name lwrist
     direction 1 -4.4897e-011 9.00228e-027   
     length 1.57968   
     axis -6.29373e-015 90 90   XYZ
    dof ry
    limits (-180.0 0.0)
 end
  begin
     id 21 
     name lhand
     direction 1 -4.48968e-011 1.80042e-026   
     length 0.712827   
     axis -1.14882e-014 90 90   XYZ
    dof rx rz
    limits (-90.0 90.0)
           (-45.0 45.0)
  end
  begin
     id 22 
     name lfingers
     direction 1 -4.49019e-011 3.60267e-026   
     length 0.574699   
     axis -2.29769e-014 90 90   XYZ
    dof rx
    limits (0.0 90.0)
  end
  begin
     id 23
     name lthumb
     direction 0.707107 -6.3498e-011 0.707107   
     length 0.825157   
     axis -90 45 5.37419e-014   XYZ
    dof rx rz
    limits (-45.0 45.0)
           (-45.0 45.0)
  end
  begin
     id 24 
     name rclavicle
     direction -0.890334 0.455305 -0.00132111   
     length 3.51494  
     axis 0 0 0   XYZ 
    dof ry rz
    limits (-10.0 20.0)
           (-20.0 0.0)
  end
  begin
     id 25 
     name rhumerus
     direction -1 -4.48967e-011 5.07175e-028  
     length 5.34194   
     axis 180 30 90   XYZ
    dof rx ry rz
    limits (-90.0 60.0)
           (-90.0 90.0)
           (-90.0 90.0)
  end
  begin
     id 26 
     name rradius
     direction -1 -4.48955e-011 3.30467e-027   
     length 3.19351   
     axis 180 30 90   XYZ
    dof rx
    limits (-10.0 170.0)
  end
  begin
     id 27 
     name rwrist
     direction -1 -4.48968e-011 9.00208e-027   
     length 1.59676   
     axis -6.29373e-015 -90 -90   XYZ
    dof ry
    limits (-180.0 0.0)
  end
  begin
     id 28
     name rhand
     direction -1 -4.49e-011 1.80099e-026   
     length 0.743862   
     axis -1.14882e-014 -90 -90   XYZ
    dof rx rz
    limits (-90.0 90.0)
           (-45.0 45.0)
  end
  begin
     id 29
     name rfingers
     direction -1 -4.49009e-011 3.6023e-026   
     length 0.599721   
     axis -2.29769e-014 -90 -90   XYZ
    dof rx
    limits (0.0 90.0)
  end
  begin
     id 30
     name rthumb
     direction -0.707107 -6.35025e-011 0.707107   
     length 0.861083   
     axis -90 -45 -5.37419e-014   XYZ
    dof rx rz
    limits (-45.0 45.0)
           (-45.0 45.0)
  end
:hierarchy
  begin
    root lhipjoint rhipjoint lowerback
    lhipjoint lfemur
    lfemur ltibia
    ltibia lfoot
    lfoot ltoes
    rhipjoint rfemur
    rfemur rtibia
    rtibia rfoot
    rfoot rtoes
    lowerback upperback
    upperback thorax
    thorax lowerneck lclavicle rclavicle
    lowerneck upperneck
    upperneck head
    lclavicle lhumerus
    lhumerus lradius
    lradius lwrist
    lwrist lhand lthumb
    lhand lfingers
    rclavicle rhumerus
    rhumerus rradius
    rradius rwrist
    rwrist rhand rthumb
    rhand rfingers
  end

#!OML:ASF H:\Martial Arts Walks\Project 1\Capture day 1\Session 1\male.ASF
:FULLY-SPECIFIED
:DEGREES
453
root -3.5991 14.4258 -17.0112 2.333 27.9036 2.78002
lowerback 13.1558 1.57751 -6.43747
upperback -0.666411 1.10435 0.165117
thorax -8.25716 0.819923 3.5954
lowerneck 0.316047 -9.70111 -10.6968
upperneck 5.37291 -13.3019 8.8081
head 2.85105 -6.65427 3.8923
rclavicle -2.85287e-014 4.5472e-015
rhumerus -8.35231 11.9499 -58.2385
rradius 73.8366
rwrist 3.5191
rhand -12.7562 -30.8699
rfingers 7.12502
rthumb 13.3282 -60.4236
lclavicle -2.85287e-014 4.5472e-015
lhumerus -52.7179 -28.3607 105.427
lradius 103.705
lwrist 43.9116
lhand -16.2087 18.6336
lfingers 7.12502
lthumb 9.99883 48.3761
rfemur -55.6085 -16.7979 9.08919
rtibia 66.0018
rfoot -7.64168 6.1919
rtoes -2.84627
lfemur 10.9808 0.478121 -6.28697
ltibia 38.9926
lfoot -24.0879 33.4582
ltoes -19.573
454
root -3.59598 14.4156 -16.999 2.4925 27.9101 2.89302
lowerback 13.0537 1.55909 -6.55952
upperback -0.742265 1.0651 0.160629
thorax -8.28003 0.80862 3.66817
lowerneck 0.406355 -9.69637 -10.8287
upperneck 5.25384 -13.312 9.04896
head 2.82684 -6.65933 3.99003
rclavicle 4.55434e-014 -2.24627e-014
rhumerus -8.2184 12.172 -58.1659
rradius 73.5934
rwrist 4.164
rhand -12.3237 -30.8892
rfingers 7.12502
rthumb 13.7451 -60.4152
lclavicle 4.55434e-014 -2.24627e-014
lhumerus -52.706 -28.15 105.352
lradius 103.779
lwrist 43.6121
lhand -16.2554 17.523
lfingers 7.12502
lthumb 9.95376 47.2676
rfemur -55.8596 -17.0647 9.08334
rtibia 66.2815
rfoot -7.82328 6.46541
rtoes -2.62502
lfemur 11.2856 0.404105 -6.4096
ltibia 38.3075
lfoot -24.2399 33.5475
ltoes -20.594
455
root -3.59062 14.3939 -16.9821 2.63677 27.7779 3.0438
lowerback 12.8808 1.57974 -6.74652
upperback -0.802067 1.0727 0.139475
thorax -8.25163 0.820554 3.75097
lowerneck 0.301232 -9.6802 -10.7812
upperneck 5.22471 -13.2797 9.04179
head 2.82831 -6.64003 3.9781
rclavicle -2.03506e-014 -3.15571e-015
rhumerus -8.16659 12.4264 -58.1167
rradius 73.4143
rwrist 4.71582
rhand -11.892 -30.8216
rfingers 7.12502
rthumb 14.1611 -60.319
lclavicle -2.03506e-014 -3.15571e-015
lhumerus -52.6812 -27.973 105.297
lradius 103.878
lwrist 43.5294
lhand -16.0938 18.3245
lfingers 7.12502
lthumb 10.1097 48.0616
rfemur -56.1832 -17.2456 9.05526
rtibia 66.6352
rfoot -7.91432 6.7317
rtoes -2.46684
lfemur 11.7013 0.427837 -6.55969
ltibia 37.6491
lfoot -24.3792 33.6771
ltoes -21.0737
456
root -3.58158 14.3704 -16.9581 2.67927 27.6234 3.33
lowerback 12.7429 1.62003 -7.03743
upperback -0.776136 1.08814 0.0708378
thorax -8.15248 0.835297 3.8402
lowerneck 0.464819 -9.72958 -10.7125
upperneck 4.96986 -13.3467 9.01261
head 2.72579 -6.67731 3.97009
rclavicle -1.56077e-014 8.57259e-015
rhumerus -8.079 12.6857 -58.076
rradius 73.2485
rwrist 5.08117
rhand -11.7045 -30.6417
rfingers 7.12502
rthumb 14.3418 -60.1263
lclavicle -1.56077e-014 8.57259e-015
lhumerus -52.4564 -27.9487 105.201
lradius 103.92
lwrist 43.6764
lhand -16.1683 18.9166
lfingers 7.12502
lthumb 10.0377 48.6572
rfemur -56.3189 -17.3964 8.81725
rtibia 67.009
rfoot -8.17078 7.03737
rtoes -1.7517
lfemur 12.3236 0.413009 -6.85417
ltibia 36.9952
lfoot -24.5988 33.8469
ltoes -21.2836
457
root -3.57617 14.3501 -16.944 2.78211 27.4501 3.46465
lowerback 12.5987 1.65139 -7.17655
upperback -0.809459 1.11556 0.0248212
thorax -8.11248 0.853029 3.86512
lowerneck 0.54593 -9.75451 -10.6858
upperneck 4.84409 -13.3823 9.02679
head 2.67782 -6.69661 3.97563
rclavicle 1.85398e-014 -5.46658e-016
rhumerus -8.04525 12.8496 -58.1044
rradius 73.0346
rwrist 5.42173
rhand -10.9343 -30.7887
rfingers 7.12502
rthumb 15.0838 -60.2192
lclavicle 1.85398e-014 -5.46658e-016
lhumerus -52.3835 -27.8685 105.123
lradius 103.991
lwrist 43.8068
lhand -16.22 18.9665
lfingers 7.12502
lthumb 9.98793 48.7095
rfemur -56.6164 -17.5097 8.791
rtibia 67.3467
rfoot -8.37574 7.32491
rtoes -1.31886
lfemur 12.7454 0.497516 -6.96401
ltibia 36.3844
lfoot -24.6897 33.9466
ltoes -21.6777
458
root -3.56922 14.3308 -16.9318 2.85151 27.2857 3.63425
lowerback 12.4939 1.68209 -7.30981
upperback -0.819218 1.13935 -0.0442675
thorax -8.06823 0.867442 3.86247
lowerneck 0.596584 -9.76816 -10.6846
upperneck 4.75041 -13.4057 9.10999
head 2.64958 -6.70819 4.00366
rclavicle 3.12993e-014 -1.53561e-014
rhumerus -7.99687 13.0432 -58.1312
rradius 72.8533
rwrist 5.57203
rhand -10.5847 -30.6302
rfingers 7.12502
rthumb 15.4205 -60.035
lclavicle 3.12993e-014 -1.53561e-014
lhumerus -52.2592 -27.8592 105.04
lradius 104.002
lwrist 43.9832
lhand -16.4166 18.6406
lfingers 7.12502
lthumb 9.79828 48.3927
rfemur -56.8329 -17.6222 8.69901
rtibia 67.6503
rfoot -8.50242 7.63054
rtoes -0.938998
lfemur 13.2 0.61973 -7.09812
ltibia 35.8313
lfoot -25.0556 33.8647
ltoes -21.8119
459
root -3.56258 14.311 -16.922 2.87141 27.2052 3.81488
lowerback 12.4878 1.69448 -7.40747
upperback -0.820698 1.1349 -0.131221
thorax -8.06648 0.867394 3.82496
lowerneck 0.660541 -9.79135 -10.6905
upperneck 4.70397 -13.4465 9.21002
head 2.63667 -6.72851 4.03616
rclavicle 5.21375e-014 4.43538e-015
rhumerus -7.92594 13.1992 -58.1744
rradius 72.6316
rwrist 5.61035
rhand -10.4359 -30.4911
rfingers 7.12502
rthumb 15.5639 -59.8848
lclavicle 5.21375e-014 4.43538e-015
lhumerus -52.1573 -27.897 104.951
lradius 103.982
lwrist 44.1371
lhand -16.4057 18.8694
lfingers 7.12502
lthumb 9.80873 48.621
rfemur -56.9617 -17.8043 8.56248
rtibia 67.9191
rfoot -8.60301 7.98467
rtoes -0.65688
lfemur 13.5978 0.654538 -7.25306
ltibia 35.4027
lfoot -25.2556 33.8937
ltoes -22.0708
460
root -3.55593 14.294 -16.9138 2.76585 27.0706 3.72091
lowerback 12.4978 1.69458 -7.30869
upperback -0.826714 1.14937 -0.122989
thorax -8.07803 0.870849 3.77498
lowerneck 0.637378 -9.80335 -10.6938
upperneck 4.7536 -13.464 9.21881
head 2.65781 -6.73642 4.03562
rclavicle -1.52132e-014 3.23895e-014
rhumerus -7.80194 13.4915 -58.1748
rradius 72.429
rwrist 5.53619
rhand -10.1529 -30.3723
rfingers 7.12502
rthumb 15.8364 -59.7446
lclavicle -1.52132e-014 3.23895e-014
lhumerus -51.9902 -27.8741 104.87
lradius 103.887
lwrist 44.2297
lhand -16.1918 19.3055
lfingers 7.12502
lthumb 10.0151 49.0472
rfemur -57.0572 -17.835 8.68871
rtibia 68.1321
rfoot -8.70385 8.25761
rtoes -0.340969
lfemur 13.9552 0.760582 -7.14208
ltibia 35.0724
lfoot -25.4884 33.9042
ltoes -22.264
461
root -3.54861 14.2774 -16.9065 2.65885 27.0131 3.64938
lowerback 12.526 1.67013 -7.21685
upperback -0.807337 1.13019 -0.108947
thorax -8.06855 0.857123 3.7419
lowerneck 0.603793 -9.80883 -10.7184
upperneck 4.76327 -13.4694 9.22694
head 2.66888 -6.73849 4.03917
rclavicle -1.421e-015 -8.70925e-015
rhumerus -7.66473 13.6898 -58.1974
rradius 72.2064
rwrist 5.46812
rhand -9.72151 -30.3551
rfingers 7.12502
rthumb 16.2518 -59.6939
lclavicle -1.421e-015 -8.70925e-015
lhumerus -51.7561 -27.8654 104.784
lradius 103.736
lwrist 44.2266
lhand -16.3099 19.5094
lfingers 7.12502
lthumb 9.90121 49.2566
rfemur -57.1161 -17.9567 8.7888
rtibia 68.3401
rfoot -8.79989 8.52568
rtoes -0.0939467
lfemur 14.2455 0.796946 -7.06011
ltibia 34.8254
lfoot -25.7545 33.9329
ltoes -22.3859
462
root -3.5399 14.2597 -16.8997 2.49566 26.9402 3.50084
lowerback 12.5414 1.6555 -7.04961
upperback -0.784151 1.13742 -0.0861751
thorax -8.04896 0.852757 3.67056
lowerneck 0.587377 -9.82947 -10.7148
upperneck 4.82936 -13.4994 9.22514
head 2.69391 -6.75277 4.03364
rclavicle 9.84528e-015 -3.26193e-014
rhumerus -7.51267 13.9254 -58.1881
rradius 71.9812
rwrist 5.332
rhand -9.44513 -30.2749
rfingers 7.12502
rthumb 16.5179 -59.5918
lclavicle 9.84528e-015 -3.26193e-014
lhumerus -51.5471 -27.9224 104.719
lradius 103.539
lwrist 44.043
lhand -16.3762 19.1918
lfingers 7.12502
lthumb 9.83724 48.942
rfemur -57.1525 -18.0556 8.9622
rtibia 68.5365
rfoot -8.8779 8.74455
rtoes 0.129335
lfemur 14.5384 0.890792 -6.89342
ltibia 34.6594
lfoot -26.0293 33.9813
ltoes -22.5164
463
root -3.5324 14.243 -16.8914 2.36461 26.8597 3.38848
lowerback 12.5468 1.6386 -6.93492
upperback -0.7735 1.13347 -0.0701199
thorax -8.03728 0.845669 3.62387
lowerneck 0.617897 -9.81872 -10.709
upperneck 4.86162 -13.4885 9.2073
head 2.69587 -6.74831 4.02912
rclavicle -4.77363e-014 -8.11911e-015
rhumerus -7.43829 14.1674 -58.2268
rradius 71.7896
rwrist 5.2193
rhand -9.30782 -30.3539
rfingers 7.12502
rthumb 16.6501 -59.6597
lclavicle -4.77363e-014 -8.11911e-015
lhumerus -51.3346 -27.9794 104.63
lradius 103.317
lwrist 43.7677
lhand -16.31 18.448
lfingers 7.12502
lthumb 9.90112 48.1952
rfemur -57.2132 -18.1486 9.11352
rtibia 68.7478
rfoot -8.97532 8.9171
rtoes 0.513222
lfemur 14.7833 1.07577 -6.72501
ltibia 34.5393
lfoot -26.3337 34.0112
ltoes -22.4038
